<?xml version="1.0" encoding="UTF-8"?>
<svg version="1.1" xmlns="http://www.w3.org/2000/svg" width="245" height="219">
<path d="M0 0 C0.7528125 0.52335937 1.505625 1.04671875 2.28125 1.5859375 C2.8484375 2.05257813 3.415625 2.51921875 4 3 C4 3.66 4 4.32 4 5 C5.32 5.66 6.64 6.32 8 7 C8 7.66 8 8.32 8 9 C8.66 9 9.32 9 10 9 C18.21854895 18.72976827 22.64680429 29.8693214 26 42 C26.17724609 42.59627197 26.35449219 43.19254395 26.53710938 43.80688477 C27.58648652 48.77869643 27.228129 54.00209827 27.25 59.0625 C27.2809375 60.8578418 27.2809375 60.8578418 27.3125 62.68945312 C27.32023437 64.40745117 27.32023437 64.40745117 27.328125 66.16015625 C27.3374707 67.20824463 27.34681641 68.25633301 27.35644531 69.33618164 C27 72 27 72 25.69628906 73.84008789 C22.88295762 75.76382676 19.78342093 75.43128722 16.5 75.375 C15.82324219 75.38660156 15.14648438 75.39820312 14.44921875 75.41015625 C11.51028566 75.39276611 9.5059624 75.37117733 7.09375 73.6015625 C5.05802584 70.62068069 4.85922692 68.66855124 4.7890625 65.08984375 C4.76070313 64.09919922 4.73234375 63.10855469 4.703125 62.08789062 C4.65172383 60.01513851 4.60726074 57.94220074 4.5703125 55.86914062 C4.33328184 48.21008729 2.71559505 42.15354591 -0.1875 35.125 C-1 33 -1 33 -1 30 C-1.66 30 -2.32 30 -3 30 C-3.92422466 28.59654773 -4.8457015 27.19121561 -5.75390625 25.77734375 C-12.61505214 15.99106983 -23.60392359 9.84713681 -35.125 7.3125 C-50.78111363 6.04991019 -62.57216044 7.86191542 -76 16 C-76.66 16 -77.32 16 -78 16 C-78 16.66 -78 17.32 -78 18 C-79.875 20.125 -79.875 20.125 -82 22 C-82.66 22 -83.32 22 -84 22 C-84.27070312 22.56589844 -84.54140625 23.13179687 -84.8203125 23.71484375 C-86.04873605 26.09440593 -87.43827898 28.30320036 -88.875 30.5625 C-96.24761316 42.83817131 -97.16099338 54.50020508 -97.1328125 68.52734375 C-97.13376923 69.59690811 -97.13472595 70.66647247 -97.13571167 71.76844788 C-97.13638812 74.01644958 -97.13457145 76.26445329 -97.13037109 78.51245117 C-97.1250206 81.92436174 -97.13033171 85.33614037 -97.13671875 88.74804688 C-97.13605777 90.94531279 -97.1347762 93.14257862 -97.1328125 95.33984375 C-97.13483673 96.34538803 -97.13686096 97.35093231 -97.13894653 98.38694763 C-97.08325795 115.4871665 -94.67010573 130.3746152 -82.74609375 143.4765625 C-71.64380033 154.13333852 -59.02995358 158.43643697 -43.93725586 158.36352539 C-30.4829539 158.05434166 -18.96702482 152.84814047 -9.1875 143.625 C1.97941815 131.54976793 4.32627176 118.71344146 5.31738281 102.78271484 C5.38022461 101.82059082 5.44306641 100.8584668 5.5078125 99.8671875 C5.55566895 99.00206543 5.60352539 98.13694336 5.65283203 97.24560547 C6 95 6 95 8 92 C10.91714801 91.72429394 13.5886826 91.6277439 16.5 91.6875 C17.67755859 91.68266602 17.67755859 91.68266602 18.87890625 91.67773438 C24.73296131 91.73296131 24.73296131 91.73296131 27 94 C30.70723165 112.16543508 25.43748684 132.3685085 16 148 C11.22269648 154.69177024 5.77752091 161.23785701 -1 166 C-1.66 166 -2.32 166 -3 166 C-3 166.66 -3 167.32 -3 168 C-5.56126064 169.294174 -8.12393358 170.58540784 -10.6875 171.875 C-11.40873047 172.23980469 -12.12996094 172.60460937 -12.87304688 172.98046875 C-29.3115044 181.23722824 -49.96696041 183.69912368 -67.75 177.9375 C-75.10816415 175.2134137 -82.1084165 171.73653043 -89 168 C-89 167.34 -89 166.68 -89 166 C-89.58394531 165.72929687 -90.16789062 165.45859375 -90.76953125 165.1796875 C-105.45529975 157.41243341 -112.17781318 141.57537716 -117.09765625 126.67578125 C-119.30479606 117.6847918 -119.1480119 108.49315893 -119.1328125 99.28515625 C-119.13376923 97.99363144 -119.13472595 96.70210663 -119.13571167 95.3714447 C-119.13717588 92.65264676 -119.13507589 89.93388194 -119.13037109 87.21508789 C-119.12468032 83.76150143 -119.12795687 80.30799282 -119.13394356 76.85440922 C-119.13846404 73.51881897 -119.13528159 70.1832487 -119.1328125 66.84765625 C-119.13584885 65.01123314 -119.13584885 65.01123314 -119.13894653 63.13771057 C-119.11140562 52.9315157 -118.95824909 43.14543937 -115.375 33.5 C-115.10921143 32.77224365 -114.84342285 32.0444873 -114.56958008 31.29467773 C-108.21159121 14.5885394 -94.88763699 -0.46868808 -78.97265625 -8.68359375 C-53.05616399 -20.16041095 -22.52674391 -17.22153248 0 0 Z " fill="#F55815" transform="translate(166,25)"/>
<path d="M0 0 C7.83499767 5.47121871 14.94615768 13.45468362 17 23 C17.63583794 28.07963862 18.12250143 32.33560133 15.1875 36.6875 C9.53514575 39.01493998 3.85290072 38.77266061 -2 37.1875 C-5.3758533 33.49516046 -5.93366883 28.78408037 -7 24 C-7.6631838 20.95128351 -7.6631838 20.95128351 -9.76171875 19.89453125 C-15.20283697 17.71998313 -20.07410767 16.49484791 -25.8125 18 C-29.35597769 20.22335855 -32.19349401 22.18803361 -34 26 C-35.04370381 31.21851904 -34.9155476 34.61889039 -31.93359375 39.1171875 C-28.99648688 42.38226434 -25.54465837 43.78244501 -21.4375 45.125 C-20.73222168 45.37378906 -20.02694336 45.62257812 -19.30029297 45.87890625 C-16.09700669 46.99914952 -12.87481486 48.03925666 -9.63671875 49.0546875 C1.16350171 52.44463997 10.72705374 57.16185407 17 67 C20.69501069 76.33083507 21.47215169 86.49084084 18 96 C16.44569264 99.39608849 14.76646984 102.70978136 13 106 C12.34 106 11.68 106 11 106 C10.773125 106.5775 10.54625 107.155 10.3125 107.75 C6.70209196 113.93927093 -1.62268742 117.83940321 -8.38671875 119.6328125 C-22.53800343 121.62118434 -34.18396842 118.87735439 -46 111 C-46 110.34 -46 109.68 -46 109 C-46.66 109 -47.32 109 -48 109 C-55.16414881 101.69774712 -58.22461125 94.04446139 -58.49609375 83.9453125 C-58 82 -58 82 -56.41015625 80.26953125 C-53.16923841 78.56240273 -50.64983843 78.56636635 -47 78.5625 C-45.783125 78.54316406 -44.56625 78.52382812 -43.3125 78.50390625 C-39.40792611 79.08867144 -38.33266588 79.87715031 -36 83 C-34.91015625 85.21875 -34.91015625 85.21875 -34.0625 87.5 C-32.38535855 91.50540841 -30.76142267 93.64911083 -27 96 C-26.401875 96.4125 -25.80375 96.825 -25.1875 97.25 C-20.13290023 98.98300563 -15.55844501 98.52773822 -10.75 96.4375 C-6.43632973 94.02592056 -4.85658146 91.56409609 -3 87 C-2.53911901 82.54481706 -2.66500758 78.89165404 -5 75 C-7.2769693 73.9457261 -7.2769693 73.9457261 -10 73 C-11.44052734 72.43152344 -11.44052734 72.43152344 -12.91015625 71.8515625 C-18.27744991 69.76317315 -23.62567061 67.77611112 -29.125 66.0625 C-35.17779663 64.10139389 -40.53497377 61.2273777 -46 58 C-46 57.34 -46 56.68 -46 56 C-46.66 56 -47.32 56 -48 56 C-48 55.34 -48 54.68 -48 54 C-48.66 54 -49.32 54 -50 54 C-57.06907469 45.10664797 -58.20496148 35.13154895 -57 24 C-54.87725814 15.9052777 -50.9827575 9.76764712 -45 4 C-43.63875 2.63875 -43.63875 2.63875 -42.25 1.25 C-29.57649448 -7.52396536 -13.2119839 -7.80887407 0 0 Z " fill="#F55815" transform="translate(140,51)"/>
<path d="M0 0 C-0.47905172 5.52620379 -2.57554188 9.07986695 -5.5 13.625 C-6.32764953 14.92669028 -7.15073444 16.23129652 -7.96875 17.5390625 C-8.51692383 18.39298584 -8.51692383 18.39298584 -9.07617188 19.26416016 C-10.08075893 21.15174312 -10.56363923 22.91357869 -11 25 C-10.43410156 25.31453125 -9.86820313 25.6290625 -9.28515625 25.953125 C-8.55167969 26.38109375 -7.81820312 26.8090625 -7.0625 27.25 C-6.33160156 27.66765625 -5.60070312 28.0853125 -4.84765625 28.515625 C-3 30 -3 30 -2.16015625 32.05078125 C-2 34 -2 34 -3.375 35.9375 C-6.14490151 38.11385119 -8.93155411 39.65932886 -12.03125 41.3125 C-16.0171319 43.57815919 -19.84519946 46.06292339 -23.6875 48.5625 C-24.41219482 49.03373291 -25.13688965 49.50496582 -25.88354492 49.99047852 C-26.58584229 50.44865967 -27.28813965 50.90684082 -28.01171875 51.37890625 C-28.69073242 51.82153809 -29.36974609 52.26416992 -30.06933594 52.72021484 C-31.30232997 53.53753335 -32.52558881 54.36986427 -33.73535156 55.22119141 C-37.36797672 57.76808782 -39.5329859 58.42542991 -44 58 C-44.63710886 53.03429859 -42.46096924 50.04273298 -39.75 46.125 C-38.95133459 44.94131023 -38.15445412 43.75641414 -37.359375 42.5703125 C-36.96814453 41.98926758 -36.57691406 41.40822266 -36.17382812 40.80957031 C-34.31585742 37.94532761 -32.66226679 34.98140511 -31 32 C-31.928125 31.731875 -32.85625 31.46375 -33.8125 31.1875 C-38.4516129 29.45920304 -38.4516129 29.45920304 -40 27 C-39.9375 24.6796875 -39.9375 24.6796875 -39 22 C-37.03785862 20.25014594 -35.2372315 18.87016277 -33.0625 17.4375 C-32.45365967 17.02056885 -31.84481934 16.6036377 -31.2175293 16.17407227 C-29.15457054 14.76806073 -27.07723277 13.38482185 -25 12 C-23.38995653 10.90723426 -21.78060172 9.81345328 -20.171875 8.71875 C-18.55291652 7.6237671 -16.93313572 6.52999895 -15.3125 5.4375 C-14.53463135 4.912771 -13.7567627 4.38804199 -12.95532227 3.84741211 C-11.85788696 3.11663452 -11.85788696 3.11663452 -10.73828125 2.37109375 C-10.08899658 1.93724365 -9.43971191 1.50339355 -8.77075195 1.05639648 C-5.48165681 -0.90581428 -3.56677698 -1.10693079 0 0 Z " fill="#F35816" transform="translate(234,155)"/>
<path d="M0 0 C4.6714374 1.3496431 8.27706987 3.26464823 12.31640625 5.95703125 C12.89535141 6.3418718 13.47429657 6.72671234 14.07078552 7.12321472 C15.2873126 7.93433191 16.50156486 8.74887036 17.71362305 9.56665039 C19.5548013 10.80731229 21.40460822 12.03419951 23.25585938 13.25976562 C24.44324922 14.05387934 25.63011602 14.8487758 26.81640625 15.64453125 C28.41657593 16.71731323 28.41657593 16.71731323 30.04907227 17.81176758 C33.01405163 20.01041985 35.54383961 22.24530389 38 25 C38.25 27.5625 38.25 27.5625 37 30 C34.74942071 31.64650456 32.5236912 32.76109705 30 34 C31.30384608 36.71531478 32.73904848 39.21553828 34.41796875 41.71484375 C34.86720703 42.40126953 35.31644531 43.08769531 35.77929688 43.79492188 C36.71986404 45.22599286 37.67046857 46.65051585 38.63085938 48.06835938 C42.04386923 53.33852076 42.04386923 53.33852076 41.80078125 57.00390625 C41.40439453 57.99197266 41.40439453 57.99197266 41 59 C36.62708473 58.48881842 33.81130456 57.56567685 30.20703125 55.05078125 C29.32853516 54.44943359 28.45003906 53.84808594 27.54492188 53.22851562 C26.64322266 52.59623047 25.74152344 51.96394531 24.8125 51.3125 C18.44919743 46.89211961 12.10314283 42.82616523 5.22143555 39.25073242 C3 38 3 38 1 36 C0.59375 33.58203125 0.59375 33.58203125 1 31 C2.96875 29.19921875 2.96875 29.19921875 5.5 27.6875 C6.75296875 26.91986328 6.75296875 26.91986328 8.03125 26.13671875 C8.6809375 25.76160156 9.330625 25.38648438 10 25 C9.64172119 24.44014404 9.28344238 23.88028809 8.91430664 23.3034668 C7.29369117 20.76693134 5.67804779 18.22726583 4.0625 15.6875 C3.49853516 14.80642578 2.93457031 13.92535156 2.35351562 13.01757812 C1.81533203 12.17001953 1.27714844 11.32246094 0.72265625 10.44921875 C0.22515869 9.66893311 -0.27233887 8.88864746 -0.78491211 8.0847168 C-2 6 -2 6 -3 3 C-2.01 2.01 -1.02 1.02 0 0 Z " fill="#F45815" transform="translate(7,154)"/>
<path d="M0 0 C0 3.33217627 -0.58351664 4.32410328 -2.25 7.125 C-6.41575674 14.4505779 -9.3635993 20.50320994 -9.82421875 29.03125 C-10 31 -10 31 -11 32 C-11.09974527 34.30985455 -11.12799901 36.6228077 -11.12939453 38.93481445 C-11.13114685 39.6600531 -11.13289917 40.38529175 -11.13470459 41.13250732 C-11.1391247 43.54278927 -11.13618366 45.95299848 -11.1328125 48.36328125 C-11.13348571 50.03378819 -11.13445589 51.70429503 -11.13571167 53.37480164 C-11.13718904 56.88293385 -11.13503366 60.39104066 -11.13037109 63.89916992 C-11.12468697 68.39511048 -11.12794419 72.89099117 -11.13394356 77.38692951 C-11.13755939 80.83988393 -11.13640564 84.29282419 -11.13381577 87.74577904 C-11.13314864 89.4031697 -11.13396743 91.06056166 -11.13629532 92.71795082 C-11.13883711 95.03766904 -11.13495907 97.3572909 -11.12939453 99.67700195 C-11.13141876 100.36235519 -11.13344299 101.04770844 -11.13552856 101.75382996 C-11.12111553 105.00010855 -10.91815865 107.88468023 -10 111 C-9.93451508 112.58211573 -9.91421619 114.16670081 -9.9375 115.75 C-9.94652344 116.54921875 -9.95554687 117.3484375 -9.96484375 118.171875 C-9.98224609 119.07679688 -9.98224609 119.07679688 -10 120 C-16.37211613 110.4418258 -15.15094816 97.27198452 -15.1328125 86.28515625 C-15.13376923 84.99363144 -15.13472595 83.70210663 -15.13571167 82.3714447 C-15.13717588 79.65264676 -15.13507589 76.93388194 -15.13037109 74.21508789 C-15.12468032 70.76150143 -15.12795687 67.30799282 -15.13394356 63.85440922 C-15.13846404 60.51881897 -15.13528159 57.1832487 -15.1328125 53.84765625 C-15.13584885 52.01123314 -15.13584885 52.01123314 -15.13894653 50.13771057 C-15.11139887 39.9290132 -14.95404187 30.14855318 -11.375 20.5 C-11.11501221 19.77876953 -10.85502441 19.05753906 -10.5871582 18.31445312 C-8.13891274 11.82055626 -4.96870138 4.96870138 0 0 Z " fill="#D5602D" transform="translate(62,38)"/>
<path d="M0 0 C-3 1 -3 1 -5.5703125 0.56640625 C-10.03156898 -0.17036162 -14.36326468 -0.10666608 -18.875 -0.0625 C-19.75414062 -0.05798828 -20.63328125 -0.05347656 -21.5390625 -0.04882812 C-23.69273803 -0.03712337 -25.84637817 -0.01919069 -28 0 C-28.33 0.99 -28.66 1.98 -29 3 C-30.64961422 3.63964633 -32.29927577 4.27917095 -33.94921875 4.91796875 C-38.74514254 7.44838949 -43.28353116 11.85059349 -45 17 C-45.66 17 -46.32 17 -47 17 C-48.80413149 23.08894379 -49.21913774 28.81495344 -49.25 35.125 C-49.25902344 35.8886084 -49.26804687 36.6522168 -49.27734375 37.43896484 C-49.25197328 42.32383815 -48.54911639 46.36494539 -47 51 C-46.34 51 -45.68 51 -45 51 C-44.7525 51.61875 -44.505 52.2375 -44.25 52.875 C-42.77753937 55.37818306 -41.58971163 55.83045281 -39 57 C-38.67 57.66 -38.34 58.32 -38 59 C-37.01 59.33 -36.02 59.66 -35 60 C-35 60.99 -35 61.98 -35 63 C-39.75 61.125 -39.75 61.125 -42 60 C-42 59.34 -42 58.68 -42 58 C-42.66 58 -43.32 58 -44 58 C-44 57.34 -44 56.68 -44 56 C-44.66 56 -45.32 56 -46 56 C-53.06907469 47.10664797 -54.20496148 37.13154895 -53 26 C-50.87725814 17.9052777 -46.9827575 11.76764712 -41 6 C-39.63875 4.63875 -39.63875 4.63875 -38.25 3.25 C-27.28461075 -4.34142332 -12.09280079 -6.04640039 0 0 Z " fill="#D75D2C" transform="translate(136,49)"/>
<path d="M0 0 C5.94 0.66 11.88 1.32 18 2 C18 2.99 18 3.98 18 5 C19.65 5 21.3 5 23 5 C23.66 6.32 24.32 7.64 25 9 C25.66 9 26.32 9 27 9 C28.75163456 12.77222089 29.22490027 15.666639 29.125 19.8125 C29.10695312 20.78832031 29.08890625 21.76414063 29.0703125 22.76953125 C29.04710937 23.50558594 29.02390625 24.24164063 29 25 C28.34 25 27.68 25 27 25 C27 25.66 27 26.32 27 27 C26.34 27 25.68 27 25 27 C24.731875 27.7425 24.46375 28.485 24.1875 29.25 C22.0705347 34.15244596 22.0705347 34.15244596 20 36 C16.73978364 36.36333855 13.57018012 36.05026898 10.3125 35.75 C9.41982422 35.68425781 8.52714844 35.61851562 7.60742188 35.55078125 C5.40281015 35.3857301 3.20153098 35.20149283 1 35 C0.67 34.34 0.34 33.68 0 33 C-0.61875 32.731875 -1.2375 32.46375 -1.875 32.1875 C-4.79711453 30.55455364 -5.61119317 29.0421483 -7 26 C-7.51692769 23.32092286 -7.76891068 20.72685398 -8 18 C-6 20 -6 20 -4.6875 23.375 C-2.8899281 27.23645075 -1.50696791 28.69053333 2 31 C2.598125 31.4125 3.19625 31.825 3.8125 32.25 C8.86709977 33.98300563 13.44155499 33.52773822 18.25 31.4375 C22.56367027 29.02592056 24.14341854 26.56409609 26 22 C26.46088099 17.54481706 26.33499242 13.89165404 24 10 C21.73909948 8.94991198 21.73909948 8.94991198 19 8 C17.45505859 7.39671875 17.45505859 7.39671875 15.87890625 6.78125 C14.78449219 6.3584375 13.69007812 5.935625 12.5625 5.5 C11.47066406 5.0771875 10.37882812 4.654375 9.25390625 4.21875 C6.18998911 3.07116039 3.11054976 2.01339178 0 1 C0 0.67 0 0.34 0 0 Z " fill="#CA5D2E" transform="translate(111,116)"/>
<path d="M0 0 C0.66 0.33 1.32 0.66 2 1 C1.27683594 2.41152344 1.27683594 2.41152344 0.5390625 3.8515625 C-0.0991747 5.10926522 -0.7371834 6.36708392 -1.375 7.625 C-1.69210938 8.24246094 -2.00921875 8.85992187 -2.3359375 9.49609375 C-8.19896168 21.09999578 -8.1501138 32.28707937 -8.09765625 45.1015625 C-8.0962413 46.41917572 -8.09482635 47.73678894 -8.09336853 49.09432983 C-8.08958728 52.56302865 -8.07979562 56.03168424 -8.06866455 59.50036621 C-8.0583549 63.05362361 -8.05385063 66.60688814 -8.04882812 70.16015625 C-8.03816849 77.10678836 -8.02114623 84.05339209 -8 91 C-8.66 91 -9.32 91 -10 91 C-11.31427506 84.01933491 -11.12581355 77.05480747 -11.09765625 69.97265625 C-11.0957884 68.61502637 -11.09436623 67.25739581 -11.09336853 65.89976501 C-11.08957222 62.34717916 -11.07976696 58.79463496 -11.06866455 55.24206543 C-11.05838801 51.60864831 -11.0538576 47.97522438 -11.04882812 44.34179688 C-11.03814177 37.22784767 -11.02110049 30.11392657 -11 23 C-10.34 23 -9.68 23 -9 23 C-9.0825 21.845 -9.165 20.69 -9.25 19.5 C-9.28495033 14.60695379 -7.46132216 11.13150506 -5 7 C-4.34 7 -3.68 7 -3 7 C-3.0928125 5.824375 -3.0928125 5.824375 -3.1875 4.625 C-3.125625 3.75875 -3.06375 2.8925 -3 2 C-2.01 1.34 -1.02 0.68 0 0 Z " fill="#CB6233" transform="translate(77,51)"/>
<path d="M0 0 C21.12975238 -0.573947 38.69135665 1.76766758 56 15 C56.7528125 15.52335937 57.505625 16.04671875 58.28125 16.5859375 C58.8484375 17.05257813 59.415625 17.51921875 60 18 C60 18.66 60 19.32 60 20 C61.32 20.66 62.64 21.32 64 22 C64 22.66 64 23.32 64 24 C64.66 24 65.32 24 66 24 C71.96794268 31.06532257 77.46691023 39.78515192 79 49 C77.515 48.505 77.515 48.505 76 48 C75.505 44.04 75.505 44.04 75 40 C74.34 40 73.68 40 73 40 C72.59007812 39.21753906 72.18015625 38.43507812 71.7578125 37.62890625 C71.21898437 36.61699219 70.68015625 35.60507812 70.125 34.5625 C69.59132813 33.55316406 69.05765625 32.54382812 68.5078125 31.50390625 C67.24345886 28.89859558 67.24345886 28.89859558 65 28 C65 27.34 65 26.68 65 26 C64.34 26 63.68 26 63 26 C63 25.34 63 24.68 63 24 C62.01 23.67 61.02 23.34 60 23 C59.566875 22.38125 59.13375 21.7625 58.6875 21.125 C57.0858377 18.80096383 57.0858377 18.80096383 54.25 17.625 C51.39923343 16.19961671 49.73976762 14.98165011 47.4375 12.875 C44.70856163 10.42501977 42.77472934 9.22877148 39 9 C39 8.34 39 7.68 39 7 C38.32453125 6.87882812 37.6490625 6.75765625 36.953125 6.6328125 C36.06109375 6.46523438 35.1690625 6.29765625 34.25 6.125 C33.36828125 5.96257813 32.4865625 5.80015625 31.578125 5.6328125 C29 5 29 5 27.20507812 4 C24.46120277 2.75565617 22.14337359 2.58166954 19.140625 2.3671875 C17.46806641 2.24150391 17.46806641 2.24150391 15.76171875 2.11328125 C14.60285156 2.03464844 13.44398437 1.95601562 12.25 1.875 C11.07566406 1.78863281 9.90132812 1.70226562 8.69140625 1.61328125 C5.79472797 1.40132918 2.89771402 1.19719673 0 1 C0 0.67 0 0.34 0 0 Z " fill="#C15B37" transform="translate(110,10)"/>
<path d="M0 0 C10.88028169 -0.57042254 10.88028169 -0.57042254 15 3 C15 3.66 15 4.32 15 5 C14.21496094 4.82082031 13.42992187 4.64164062 12.62109375 4.45703125 C3.88594843 2.66981564 3.88594843 2.66981564 -4 6 C-7.17619698 8.77072503 -8.6582739 10.29136951 -9.48046875 14.40234375 C-9.73499544 18.97694507 -9.54449764 21.17128084 -6.95703125 25.109375 C-3.86664096 28.54999484 -0.3804912 29.83873454 3.9375 31.25 C4.62779297 31.49234375 5.31808594 31.7346875 6.02929688 31.984375 C8.0133858 32.67645531 10.00425834 33.3423876 12 34 C13.15628906 34.38671875 14.31257813 34.7734375 15.50390625 35.171875 C16.32761719 35.44515625 17.15132812 35.7184375 18 36 C18 36.66 18 37.32 18 38 C11.9836161 37.10439119 7.17828421 36.30834824 2 33 C0.845 32.896875 -0.31 32.79375 -1.5 32.6875 C-6.17116363 31.76995 -7.35710732 29.85107219 -10 26 C-11.95089957 22.7643617 -12.27088825 20.32760638 -12.25 16.5625 C-12.25515625 15.63566406 -12.2603125 14.70882812 -12.265625 13.75390625 C-11.98085882 10.80155097 -11.33940689 8.64134785 -10 6 C-7.875 5.1875 -7.875 5.1875 -6 5 C-6 4.34 -6 3.68 -6 3 C-4.02 2.67 -2.04 2.34 0 2 C0 1.34 0 0.68 0 0 Z " fill="#C35D33" transform="translate(115,65)"/>
<path d="M0 0 C0.84699463 -0.01756348 1.69398926 -0.03512695 2.56665039 -0.05322266 C8.37097864 -0.04756266 12.53735508 1.04543576 17.875 3.3125 C19.2025829 3.66804539 20.53490967 4.00746429 21.875 4.3125 C21.875 5.3025 21.875 6.2925 21.875 7.3125 C21.23433594 7.10753906 20.59367187 6.90257812 19.93359375 6.69140625 C3.80153016 1.66666513 -11.93974742 1.61667297 -27.125 9.3125 C-28.79479326 10.30727045 -30.46279419 11.30510254 -32.125 12.3125 C-32.785 12.3125 -33.445 12.3125 -34.125 12.3125 C-34.125 12.9725 -34.125 13.6325 -34.125 14.3125 C-36 16.4375 -36 16.4375 -38.125 18.3125 C-38.785 18.3125 -39.445 18.3125 -40.125 18.3125 C-40.785 19.6325 -41.445 20.9525 -42.125 22.3125 C-42.455 21.3225 -42.785 20.3325 -43.125 19.3125 C-42.465 19.3125 -41.805 19.3125 -41.125 19.3125 C-40.795 17.6625 -40.465 16.0125 -40.125 14.3125 C-38.475 13.9825 -36.825 13.6525 -35.125 13.3125 C-35.125 12.6525 -35.125 11.9925 -35.125 11.3125 C-34.465 11.3125 -33.805 11.3125 -33.125 11.3125 C-32.795 10.3225 -32.465 9.3325 -32.125 8.3125 C-21.86343098 1.80035043 -12.02066618 0.13408807 0 0 Z " fill="#D56029" transform="translate(122.125,28.6875)"/>
<path d="M0 0 C2.64 0 5.28 0 8 0 C6.41886497 3.16227006 3.69035424 3.63660075 0.5 5 C-1.27890625 5.7734375 -1.27890625 5.7734375 -3.09375 6.5625 C-11.53355214 9.83694113 -19.68426929 10.38547039 -28.6875 10.375 C-29.83202637 10.37628906 -30.97655273 10.37757813 -32.15576172 10.37890625 C-40.69216603 10.27233743 -48.03419495 9.24425515 -56 6 C-56 5.67 -56 5.34 -56 5 C-51.1666528 4.91666643 -46.76307437 5.04738513 -42 6 C-42 6.66 -42 7.32 -42 8 C-38.79138226 7.86004486 -35.58318712 7.71197743 -32.375 7.5625 C-31.47136719 7.52318359 -30.56773438 7.48386719 -29.63671875 7.44335938 C-25.00682503 7.22369288 -20.57041989 6.80654469 -16 6 C-14.37605252 5.9379225 -12.74994703 5.91287959 -11.125 5.9375 C-9.95324219 5.95103516 -9.95324219 5.95103516 -8.7578125 5.96484375 C-8.17773438 5.97644531 -7.59765625 5.98804688 -7 6 C-7 5.34 -7 4.68 -7 4 C-3.535 3.505 -3.535 3.505 0 3 C0 2.01 0 1.02 0 0 Z " fill="#D15F28" transform="translate(149,195)"/>
<path d="M0 0 C0.85658203 0.58007812 0.85658203 0.58007812 1.73046875 1.171875 C13.99408531 9.04866529 26.60568551 11.66640116 41 10 C45.48977918 8.99677279 49.69753415 7.60857958 54 6 C55.32770632 5.64491575 56.65918667 5.30184186 58 5 C56.95644455 8.13066634 56.60811727 9.10270157 54 11 C51.44625767 11.54764887 49.08283315 11.92801954 46.5 12.1875 C45.78021973 12.26572998 45.06043945 12.34395996 44.31884766 12.42456055 C34.4129107 13.43905063 26.07215789 13.07630821 16.359375 10.55859375 C12.636974 9.93963637 9.68792775 10.29330319 6 11 C5.7525 10.236875 5.505 9.47375 5.25 8.6875 C3.87213641 5.72509328 2.5717159 4.88592499 0 3 C0 2.01 0 1.02 0 0 Z " fill="#C25F32" transform="translate(88,173)"/>
<path d="M0 0 C0.66 0 1.32 0 2 0 C1.9131197 2.9389507 1.80626233 5.87481289 1.6875 8.8125 C1.66494141 9.64587891 1.64238281 10.47925781 1.61914062 11.33789062 C1.58369141 12.14033203 1.54824219 12.94277344 1.51171875 13.76953125 C1.48553467 14.50792236 1.45935059 15.24631348 1.43237305 16.00708008 C0.892195 18.49690133 -0.16379856 19.29267536 -2 21 C-2.33 21.99 -2.66 22.98 -3 24 C-3.66 24 -4.32 24 -5 24 C-5 24.66 -5 25.32 -5 26 C-5.66 26 -6.32 26 -7 26 C-6.67 27.98 -6.34 29.96 -6 32 C-7.0828125 32.5878125 -7.0828125 32.5878125 -8.1875 33.1875 C-11.10098846 34.9248778 -11.10098846 34.9248778 -13.5 37.5 C-15.91403597 39.91403597 -17.90554821 41.57179148 -21 43 C-23.15234375 42.5703125 -23.15234375 42.5703125 -25 42 C-24.34773437 41.50371094 -23.69546875 41.00742188 -23.0234375 40.49609375 C-10.36664075 30.65814111 -2.40296353 19.61188794 -0.3125 3.375 C-0.209375 2.26125 -0.10625 1.1475 0 0 Z " fill="#D05C2A" transform="translate(171,135)"/>
<path d="M0 0 C7.05614579 0.18092682 11.68823281 4.83040464 16.546875 9.48046875 C20.16122429 13.4629462 22.0662323 18.06502483 24 23 C24.36351562 23.90492187 24.72703125 24.80984375 25.1015625 25.7421875 C28.5055771 34.58282973 29.15618177 42.61741005 29.0625 52 C29.05798828 52.87011719 29.05347656 53.74023438 29.04882812 54.63671875 C29.0371736 56.75784293 29.01924357 58.8789311 29 61 C26.47897664 58.47897664 26.73941722 57.5789547 26.69140625 54.08984375 C26.66626953 53.09919922 26.64113281 52.10855469 26.61523438 51.08789062 C26.58053675 49.0150288 26.54919431 46.94210764 26.52148438 44.86914062 C26.31848731 37.18991019 24.72239669 31.17001303 21.8125 24.125 C21 22 21 22 21 19 C20.34 19 19.68 19 19 19 C18.07715722 17.59864616 17.15754602 16.19506277 16.25390625 14.78125 C12.338359 9.21897728 7.3600021 5.30117767 1.50390625 1.9453125 C1.00761719 1.63335937 0.51132813 1.32140625 0 1 C0 0.67 0 0.34 0 0 Z " fill="#B3603C" transform="translate(144,36)"/>
<path d="M0 0 C-9.96842172 9.31830726 -19.05349108 12.25895718 -32.546875 12.16015625 C-38.46577609 11.88563708 -43.56638346 10.37720724 -49 8 C-45.57207136 6.85200516 -43.19138772 7.17923293 -39.6875 7.9375 C-32.11748173 9.51141108 -32.11748173 9.51141108 -24.68359375 8.046875 C-20.82592415 6.54199079 -16.92295041 6.13918089 -12.83984375 5.5625 C-10.20767141 5.04113437 -8.31019483 4.32960853 -6 3 C-6 2.01 -6 1.02 -6 0 C-2.25 -1.125 -2.25 -1.125 0 0 Z " fill="#BE6037" transform="translate(151,159)"/>
<path d="M0 0 C3.82097005 3.39641782 6.86381886 7.35012295 9 12 C8.8125 15 8.8125 15 8 17 C3.45984937 16.48684121 0.57972052 15.41573443 -3.1796875 12.83984375 C-4.1078125 12.21142578 -5.0359375 11.58300781 -5.9921875 10.93554688 C-6.94351563 10.27619141 -7.89484375 9.61683594 -8.875 8.9375 C-9.84953125 8.27427734 -10.8240625 7.61105469 -11.828125 6.92773438 C-14.22528637 5.29437442 -16.61542962 3.65166286 -19 2 C-17.18847656 1.40112305 -17.18847656 1.40112305 -15 1 C-11.984375 2.58203125 -11.984375 2.58203125 -8.75 4.8125 C-7.67234375 5.54082031 -6.5946875 6.26914063 -5.484375 7.01953125 C-4.66453125 7.67308594 -3.8446875 8.32664063 -3 9 C-3 9.66 -3 10.32 -3 11 C-1.68 10.67 -0.36 10.34 1 10 C0.505 5.05 0.505 5.05 0 0 Z " fill="#D95D26" transform="translate(40,196)"/>
<path d="M0 0 C4.75413223 2.43801653 4.75413223 2.43801653 5.875 5 C6 7 6 7 5 10 C2.78298853 11.58965571 0.42137527 12.72327486 -2 14 C-1.55527344 14.85271484 -1.55527344 14.85271484 -1.1015625 15.72265625 C1.36406322 20.82003142 3.55531304 26.26176527 3 32 C0.525 32.495 0.525 32.495 -2 33 C-2 32.34 -2 31.68 -2 31 C-2.804375 30.71125 -3.60875 30.4225 -4.4375 30.125 C-7 29 -7 29 -8 27 C-6.68 27 -5.36 27 -4 27 C-3.67 26.01 -3.34 25.02 -3 24 C-2.34 24 -1.68 24 -1 24 C-1.60183749 21.97954558 -2.27306096 19.97888961 -3 18 C-3.66 17.67 -4.32 17.34 -5 17 C-4.67 14.69 -4.34 12.38 -4 10 C-1.36 9.67 1.28 9.34 4 9 C4 7.35 4 5.7 4 4 C2.68 3.34 1.36 2.68 0 2 C0 1.34 0 0.68 0 0 Z " fill="#F05916" transform="translate(39,174)"/>
<path d="M0 0 C0.66 0 1.32 0 2 0 C2.17273437 0.55945313 2.34546875 1.11890625 2.5234375 1.6953125 C4.54961902 7.47643591 7.32912611 12.37757207 10.8125 17.375 C11.21452637 17.96941895 11.61655273 18.56383789 12.03076172 19.17626953 C15.15631212 23.52148682 18.253839 25.55036851 23 28 C25.1981607 29.55720973 27.01251711 31.15794268 29 33 C29 33.66 29 34.32 29 35 C30.32 35 31.64 35 33 35 C33 35.99 33 36.98 33 38 C33.86625 38.185625 33.86625 38.185625 34.75 38.375 C37.02335767 39.00648824 38.9253529 39.88858191 41 41 C40.01 41.495 40.01 41.495 39 42 C36.55667274 40.92481882 34.23245477 39.80191434 31.875 38.5625 C31.21628906 38.22412109 30.55757812 37.88574219 29.87890625 37.53710938 C28.24893453 36.69850074 26.62398091 35.85015189 25 35 C25 34.34 25 33.68 25 33 C24.41605469 32.72929687 23.83210938 32.45859375 23.23046875 32.1796875 C12.84609993 26.68742939 5.00249563 15.44595623 0.55859375 4.83984375 C0 3 0 3 0 0 Z " fill="#B15C3B" transform="translate(52,158)"/>
<path d="M0 0 C3.86666542 3.16363534 4.76240838 6.8429182 5.296875 11.6953125 C5.64928857 19.03726178 5.64928857 19.03726178 3.1875 22.6875 C-2.46485425 25.01493998 -8.14709928 24.77266061 -14 23.1875 C-16.84569813 20.07501768 -17.42289139 16.75567379 -18.32421875 12.69140625 C-18.94858285 10.20477696 -19.76033344 8.23139981 -21 6 C-18.64453125 6.625 -18.64453125 6.625 -16 8 C-14.63671875 10.75 -14.63671875 10.75 -13.6875 14 C-13.36136719 15.0725 -13.03523437 16.145 -12.69921875 17.25 C-12 20 -12 20 -12 22 C-7.38 21.67 -2.76 21.34 2 21 C3.09298543 14.87928157 2.75676893 10.95349471 1 5 C0.65334443 3.33605325 0.31323028 1.67056149 0 0 Z " fill="#BA6249" transform="translate(152,65)"/>
<path d="M0 0 C0.66 0 1.32 0 2 0 C3.18359375 1.64453125 3.18359375 1.64453125 4.4375 3.8125 C6.06254528 6.60920801 7.66941396 8.76364251 10 11 C13.02320888 15.21089808 13.02320888 15.21089808 12.9375 18.125 C11.70702121 20.58595759 10.35808838 21.61288919 8 23 C7.01 23 6.02 23 5 23 C5.27034634 25.43717258 5.27034634 25.43717258 6 28 C6.99 28.66 7.98 29.32 9 30 C9 30.66 9 31.32 9 32 C10.32 32.66 11.64 33.32 13 34 C9.47304741 34 8.24817251 33.18925038 5.3125 31.3125 C4.50425781 30.81363281 3.69601563 30.31476563 2.86328125 29.80078125 C1 28 1 28 0.44921875 25.5 C1 23 1 23 2.96875 21.19921875 C3.8040625 20.70035156 4.639375 20.20148438 5.5 19.6875 C6.3353125 19.17574219 7.170625 18.66398437 8.03125 18.13671875 C8.6809375 17.76160156 9.330625 17.38648438 10 17 C9.69707031 16.52054932 9.39414062 16.04109863 9.08203125 15.54711914 C7.71903518 13.38703248 6.35947686 11.22480307 5 9.0625 C4.52304688 8.30775391 4.04609375 7.55300781 3.5546875 6.77539062 C3.10351562 6.05673828 2.65234375 5.33808594 2.1875 4.59765625 C1.76855469 3.93258057 1.34960938 3.26750488 0.91796875 2.58227539 C0 1 0 1 0 0 Z " fill="#C36136" transform="translate(7,162)"/>
<path d="M0 0 C1.84271484 0.00580078 1.84271484 0.00580078 3.72265625 0.01171875 C6.9375 0.3125 6.9375 0.3125 9.9375 2.3125 C9.6075 2.9725 9.2775 3.6325 8.9375 4.3125 C8.6075 3.9825 8.2775 3.6525 7.9375 3.3125 C5.2601862 3.21268786 2.61445825 3.17370125 -0.0625 3.1875 C-0.81273438 3.18363281 -1.56296875 3.17976562 -2.3359375 3.17578125 C-5.99856117 2.83574459 -5.99856117 2.83574459 -9.0625 4.3125 C-9.50338141 9.82351765 -8.48238939 13.38309568 -6.0625 18.3125 C-5.60875 19.34375 -5.155 20.375 -4.6875 21.4375 C-2.16278563 25.90430235 0.91409074 28.64334779 5.1875 31.4375 C7.9375 33.3125 7.9375 33.3125 8.9375 36.3125 C5.9655615 35.18798273 3.60309313 34.08956209 0.9375 32.3125 C0.9375 31.6525 0.9375 30.9925 0.9375 30.3125 C0.2775 30.3125 -0.3825 30.3125 -1.0625 30.3125 C-8.22664881 23.01024712 -11.28711125 15.35696139 -11.55859375 5.2578125 C-11.0625 3.3125 -11.0625 3.3125 -9.4765625 1.57421875 C-6.20684612 -0.13471068 -3.67257105 -0.05020339 0 0 Z " fill="#B36340" transform="translate(93.0625,129.6875)"/>
<path d="M0 0 C4.59070116 7.86977341 4.33702502 16.48839945 4.3125 25.3125 C4.32861328 26.49134766 4.34472656 27.67019531 4.36132812 28.88476562 C4.36197266 30.01205078 4.36261719 31.13933594 4.36328125 32.30078125 C4.36626221 33.32341064 4.36924316 34.34604004 4.37231445 35.3996582 C4 38 4 38 2.69628906 39.83569336 C-0.12620118 41.77300711 -3.2693662 41.34969752 -6.5625 41.25 C-7.24763672 41.24484375 -7.93277344 41.2396875 -8.63867188 41.234375 C-13.68987462 41.15506269 -13.68987462 41.15506269 -16 40 C-15.67 39.34 -15.34 38.68 -15 38 C-10.05 38.66 -5.1 39.32 0 40 C0 39.34 0 38.68 0 38 C0.66 38 1.32 38 2 38 C1.8613598 33.7289011 1.71286099 29.45820108 1.5625 25.1875 C1.52318359 23.97255859 1.48386719 22.75761719 1.44335938 21.50585938 C1.40146484 20.34248047 1.35957031 19.17910156 1.31640625 17.98046875 C1.27974854 16.90692139 1.24309082 15.83337402 1.20532227 14.72729492 C1.10458153 11.90688447 1.10458153 11.90688447 0 9 C-0.06740865 7.43881572 -0.08514456 5.8749748 -0.0625 4.3125 C-0.05347656 3.50425781 -0.04445312 2.69601563 -0.03515625 1.86328125 C-0.02355469 1.24839844 -0.01195312 0.63351563 0 0 Z " fill="#BB6645" transform="translate(189,59)"/>
<path d="M0 0 C3.34388291 1.33140048 6.0491924 2.91516534 9.03833008 4.9140625 C10.09729492 5.62046875 11.15625977 6.326875 12.24731445 7.0546875 C13.88216797 8.16070312 13.88216797 8.16070312 15.55004883 9.2890625 C16.67013863 10.0343848 17.79057838 10.77918147 18.91137695 11.5234375 C27.10400908 17.02198301 27.10400908 17.02198301 28.23754883 19.2890625 C26.58754883 19.2890625 24.93754883 19.2890625 23.23754883 19.2890625 C23.23754883 18.6290625 23.23754883 17.9690625 23.23754883 17.2890625 C21.91754883 16.9590625 20.59754883 16.6290625 19.23754883 16.2890625 C19.23754883 15.2990625 19.23754883 14.3090625 19.23754883 13.2890625 C18.55692383 13.0209375 17.87629883 12.7528125 17.17504883 12.4765625 C14.99393058 11.59483385 12.82953128 10.67151095 10.67504883 9.7265625 C7.49413962 8.22217705 7.49413962 8.22217705 4.92504883 7.9765625 C4.36817383 7.7496875 3.81129883 7.5228125 3.23754883 7.2890625 C1.98754883 4.2265625 1.98754883 4.2265625 1.23754883 1.2890625 C-0.41245117 1.6190625 -2.06245117 1.9490625 -3.76245117 2.2890625 C-3.43245117 3.9390625 -3.10245117 5.5890625 -2.76245117 7.2890625 C-4.32495117 5.4765625 -4.32495117 5.4765625 -5.76245117 3.2890625 C-5.43245117 2.2990625 -5.10245117 1.3090625 -4.76245117 0.2890625 C-2.76245117 -0.7109375 -2.76245117 -0.7109375 0 0 Z " fill="#C05D30" transform="translate(9.762451171875,154.7109375)"/>
<path d="M0 0 C0.33 0.66 0.66 1.32 1 2 C0.319375 2.556875 -0.36125 3.11375 -1.0625 3.6875 C-3.26210288 5.82480171 -3.26210288 5.82480171 -3.0625 8.5625 C-2.1847157 11.22976982 -2.1847157 11.22976982 0.5625 12.5 C1.366875 12.995 2.17125 13.49 3 14 C3.60675687 17.41079835 3.15864706 18.75742581 1.25 21.67578125 C0.5075 22.54589844 -0.235 23.41601562 -1 24.3125 C-1.7425 25.19550781 -2.485 26.07851562 -3.25 26.98828125 C-4.11625 27.98408203 -4.11625 27.98408203 -5 29 C-5 25.27792613 -3.82035432 23.53604411 -2 20.3125 C-1.443125 19.31863281 -0.88625 18.32476562 -0.3125 17.30078125 C0.3371875 16.16189453 0.3371875 16.16189453 1 15 C0.071875 14.731875 -0.85625 14.46375 -1.8125 14.1875 C-6.4516129 12.45920304 -6.4516129 12.45920304 -8 10 C-8.125 7.625 -8.125 7.625 -7 5 C-4.81419241 3.08546209 -2.47383044 1.51788552 0 0 Z " fill="#B95428" transform="translate(202,172)"/>
<path d="M0 0 C2.91714801 -0.27570606 5.5886826 -0.3722561 8.5 -0.3125 C9.67755859 -0.31733398 9.67755859 -0.31733398 10.87890625 -0.32226562 C16.73296131 -0.26703869 16.73296131 -0.26703869 19 2 C19.125 5.125 19.125 5.125 19 8 C18.46375 7.175 17.9275 6.35 17.375 5.5 C15.10997505 3.14198283 13.88754503 2.98917478 10.55078125 2.66796875 C7.03215807 2.68575754 3.51483275 2.83575548 0 3 C0 7.62 0 12.24 0 17 C-0.66 17 -1.32 17 -2 17 C-2.05398987 14.72942623 -2.09278742 12.45848712 -2.125 10.1875 C-2.14820313 8.92292969 -2.17140625 7.65835938 -2.1953125 6.35546875 C-2 3 -2 3 0 0 Z " fill="#BC613C" transform="translate(174,117)"/>
<path d="M0 0 C1.60031344 3.20062687 0.03173691 5.72271806 -1 9 C-0.01 8.34 0.98 7.68 2 7 C2.99 7 3.98 7 5 7 C5 6.01 5 5.02 5 4 C7.97 3.34 10.94 2.68 14 2 C9.65828435 6.90802639 4.06754161 11.67710088 -2.5625 12.375 C-3.366875 12.25125 -4.17125 12.1275 -5 12 C-5.58305225 8.15185513 -4.7002883 6.23691365 -2.5 3.1875 C-1.67780256 2.11635945 -0.84795951 1.0508641 0 0 Z " fill="#C95C30" transform="translate(195,201)"/>
<path d="M0 0 C2 1 2 1 2.8515625 3.40625 C6.3933378 17.57335122 4.88750163 27.17137101 -2 40 C-2.66 40 -3.32 40 -4 40 C-3.625 37.5625 -3.625 37.5625 -3 35 C-2.01 34.505 -2.01 34.505 -1 34 C4.02670452 23.62377508 3.03094252 10.79773272 0 0 Z " fill="#BD603A" transform="translate(155,117)"/>
<path d="M0 0 C2 1 2 1 2.60522461 2.70996094 C3.0636168 5.36903253 3.21598632 7.94363247 3.31640625 10.640625 C3.35830078 11.71054688 3.40019531 12.78046875 3.44335938 13.8828125 C3.48267578 14.99398437 3.52199219 16.10515625 3.5625 17.25 C3.60568359 18.37664062 3.64886719 19.50328125 3.69335938 20.6640625 C3.79932015 23.44258954 3.90139142 26.22120391 4 29 C7.3 29.33 10.6 29.66 14 30 C14 29.01 14 28.02 14 27 C14.99 27.33 15.98 27.66 17 28 C17.6875 30.0625 17.6875 30.0625 18 32 C16.27119018 32.05449838 14.54187288 32.09301688 12.8125 32.125 C11.84957031 32.14820313 10.88664063 32.17140625 9.89453125 32.1953125 C6.87187222 31.9913544 4.73230015 31.26874632 2 30 C1.93941406 28.75605469 1.87882813 27.51210937 1.81640625 26.23046875 C1.37897164 17.46857426 0.92177131 8.72740923 0 0 Z " fill="#E85D1E" transform="translate(171,67)"/>
<path d="M0 0 C0.70382813 0.00128906 1.40765625 0.00257812 2.1328125 0.00390625 C7.45265727 0.10242189 11.3978306 0.9489153 16.125 3.3125 C12.54484668 4.50588444 10.83021296 3.93003549 7.125 3.3125 C-1.25626194 2.87898645 -9.63777238 3.79511596 -17.875 5.3125 C-12.50265652 0.7666709 -6.86916064 -0.0520391 0 0 Z " fill="#C2603C" transform="translate(119.875,45.6875)"/>
<path d="M0 0 C0.66 0 1.32 0 2 0 C0.44552062 3.6020463 -1.747448 6.16870103 -4.375 9.0625 C-5.14585937 9.91972656 -5.91671875 10.77695313 -6.7109375 11.66015625 C-8.7173198 13.71104874 -10.59704574 15.44063607 -13 17 C-13.66 17 -14.32 17 -15 17 C-15 17.66 -15 18.32 -15 19 C-16.98 19.66 -18.96 20.32 -21 21 C-20.04367001 19.70684939 -19.08486149 18.41553147 -18.125 17.125 C-17.59132812 16.40570313 -17.05765625 15.68640625 -16.5078125 14.9453125 C-13.55402809 11.13447148 -11.74020011 10.61828697 -7 10 C-7 9.34 -7 8.68 -7 8 C-6.34 8 -5.68 8 -5 8 C-4.731875 7.4225 -4.46375 6.845 -4.1875 6.25 C-2.97070811 3.94449957 -1.69666121 1.97943808 0 0 Z " fill="#D45D33" transform="translate(178,174)"/>
<path d="M0 0 C7.04754713 0.18070634 11.85921734 4.85163091 16.6171875 9.62109375 C19.15880726 12.51613401 20.81599936 15.34036165 22 19 C21.01 19 20.02 19 19 19 C18.05009327 17.60906514 17.10902549 16.2110864 16.21875 14.78125 C12.3898553 9.18517313 7.33084752 5.2844705 1.50390625 1.9453125 C1.00761719 1.63335937 0.51132813 1.32140625 0 1 C0 0.67 0 0.34 0 0 Z " fill="#C55D33" transform="translate(144,36)"/>
<path d="M0 0 C0.66 0 1.32 0 2 0 C1.75274981 11.01499591 0.9478474 20.60706219 -3 31 C-3.33 31 -3.66 31 -4 31 C-4.15423011 25.84334973 -3.6055973 21.0936251 -2.5625 16.0625 C-1.47909345 10.71803996 -0.62370078 5.41953587 0 0 Z " fill="#BA6433" transform="translate(192,127)"/>
<path d="M0 0 C0 3.33217627 -0.58351664 4.32410328 -2.25 7.125 C-6.16491835 13.97887972 -9.15741114 20.45484874 -10.60546875 28.25 C-11 30 -11 30 -12 31 C-12.23192865 32.51469448 -12.41215238 34.03754562 -12.5625 35.5625 C-12.64628906 36.38878906 -12.73007812 37.21507812 -12.81640625 38.06640625 C-12.87699219 38.70449219 -12.93757813 39.34257813 -13 40 C-13.33 40 -13.66 40 -14 40 C-15.64238698 25.91805234 -9.24926764 12.08992454 -1 1 C-0.67 0.67 -0.34 0.34 0 0 Z " fill="#B1603C" transform="translate(62,38)"/>
<path d="M0 0 C-1 2 -1 2 -4.0625 3.125 C-9.05364876 5.12972642 -12.61508312 8.90507616 -16 13 C-16.33 13.99 -16.66 14.98 -17 16 C-18.32 15.34 -19.64 14.68 -21 14 C-19.60919892 12.41224451 -18.21211596 10.82999061 -16.8125 9.25 C-15.64654297 7.92742188 -15.64654297 7.92742188 -14.45703125 6.578125 C-9.64325361 1.52710236 -7.1583492 -0.56143915 0 0 Z " fill="#CB5D32" transform="translate(108,50)"/>
<path d="M0 0 C4.78644729 -0.08252495 9.31604754 -0.14242743 14 1 C14.33 1.66 14.66 2.32 15 3 C23.25 3.33 31.5 3.66 40 4 C40 4.33 40 4.66 40 5 C11.84846857 5.82555811 11.84846857 5.82555811 0 1 C0 0.67 0 0.34 0 0 Z " fill="#BA5F38" transform="translate(93,200)"/>
<path d="M0 0 C4.75413223 2.43801653 4.75413223 2.43801653 5.875 5 C6 7 6 7 5 10 C2.78298853 11.58965571 0.42137527 12.72327486 -2 14 C-1.690625 14.5775 -1.38125 15.155 -1.0625 15.75 C-0.07416636 17.84294184 0.5168613 19.74535275 1 22 C-3.31606218 19.09326425 -3.31606218 19.09326425 -5 17 C-4.875 13.1875 -4.875 13.1875 -4 10 C-1.36 9.67 1.28 9.34 4 9 C4 7.35 4 5.7 4 4 C2.68 3.34 1.36 2.68 0 2 C0 1.34 0 0.68 0 0 Z " fill="#C15E37" transform="translate(39,174)"/>
<path d="M0 0 C2 2 2 2 3.3125 5.375 C5.57810886 10.24186347 8.97323289 13.13291507 14 15 C16.66610683 15.44691964 19.30666504 15.7306665 22 16 C22 16.33 22 16.66 22 17 C17.71 17 13.42 17 9 17 C8.67 16.34 8.34 15.68 8 15 C7.38125 14.731875 6.7625 14.46375 6.125 14.1875 C3.20288547 12.55455364 2.38880683 11.0421483 1 8 C0.48307231 5.32092286 0.23108932 2.72685398 0 0 Z " fill="#C3612E" transform="translate(103,134)"/>
<path d="M0 0 C-4.90106765 4.61106364 -8.87512346 7.82065754 -15.875 8.125 C-16.57625 8.08375 -17.2775 8.0425 -18 8 C-18 8.66 -18 9.32 -18 10 C-20.97 10 -23.94 10 -27 10 C-25.68 9.34 -24.36 8.68 -23 8 C-22.67 7.67 -22.34 7.34 -22 7 C-19.00258143 6.46037396 -15.99445673 6.03451931 -12.98046875 5.59765625 C-10.28797313 5.0577456 -8.35852514 4.3648608 -6 3 C-6 2.01 -6 1.02 -6 0 C-2.25 -1.125 -2.25 -1.125 0 0 Z " fill="#E55D24" transform="translate(151,159)"/>
<path d="M0 0 C-0.48796058 5.09647717 -2.30638503 8.66704554 -5.0625 12.875 C-5.43955078 13.46796875 -5.81660156 14.0609375 -6.20507812 14.671875 C-7.12784796 16.12027322 -8.06270263 17.56096031 -9 19 C-10 17 -10 17 -9.0625 13.875 C-8.711875 12.92625 -8.36125 11.9775 -8 11 C-7.34 11 -6.68 11 -6 11 C-6 9.35 -6 7.7 -6 6 C-5.34 5.67 -4.68 5.34 -4 5 C-3.34786708 2.97536745 -3.34786708 2.97536745 -3 1 C-3.99 1.33 -4.98 1.66 -6 2 C-6 1.34 -6 0.68 -6 0 C-3.50907189 -1.24546405 -2.58919267 -0.7767578 0 0 Z " fill="#BF613B" transform="translate(234,155)"/>
<path d="M0 0 C11.8069818 -0.32071279 22.53777438 -0.18816872 34 3 C34 3.66 34 4.32 34 5 C29.46938465 5.25170085 29.46938465 5.25170085 27.19433594 4.03173828 C24.45289884 2.74276263 22.15907638 2.58279117 19.140625 2.3671875 C17.46806641 2.24150391 17.46806641 2.24150391 15.76171875 2.11328125 C14.60285156 2.03464844 13.44398437 1.95601562 12.25 1.875 C11.07566406 1.78863281 9.90132812 1.70226562 8.69140625 1.61328125 C5.79472797 1.40132918 2.89771402 1.19719673 0 1 C0 0.67 0 0.34 0 0 Z " fill="#BC5D36" transform="translate(110,10)"/>
<path d="M0 0 C2.52588702 2.36292656 3.88820837 3.66462511 5 7 C7.57093623 9.86475752 10.02168479 12.01417852 13.25 14.125 C16 16 16 16 17 19 C14.0280615 17.87548273 11.66559313 16.77706209 9 15 C9 14.34 9 13.68 9 13 C8.34 13 7.68 13 7 13 C5.2734375 11.171875 5.2734375 11.171875 3.375 8.75 C2.74335937 7.96109375 2.11171875 7.1721875 1.4609375 6.359375 C0 4 0 4 0 0 Z " fill="#BB5730" transform="translate(85,147)"/>
<path d="M0 0 C1.89078616 2.83617924 2.76063291 5.04516239 3.8125 8.25 C5.5666454 13.23442071 7.70970627 16.88713284 11 21 C10.67 21.66 10.34 22.32 10 23 C7.5 21.1875 7.5 21.1875 5 19 C5 18.01 5 17.02 5 16 C4.34 16 3.68 16 3 16 C0.96780512 12.59648662 0.63108961 9.6767073 0.375 5.75 C0.30023438 4.67234375 0.22546875 3.5946875 0.1484375 2.484375 C0.09945312 1.66453125 0.05046875 0.8446875 0 0 Z " fill="#C05C33" transform="translate(69,143)"/>
<path d="M0 0 C23.4375 -0.28125 23.4375 -0.28125 30 3 C30 3.99 30 4.98 30 6 C28.7625 5.54625 27.525 5.0925 26.25 4.625 C17.78206515 2.03553007 8.78464192 1.7122337 0 1 C0 0.67 0 0.34 0 0 Z " fill="#C05F36" transform="translate(114,30)"/>
<path d="M0 0 C4.30401061 8.11558444 4.19216273 16.07297074 3.625 25.0625 C3.56828125 26.11888672 3.5115625 27.17527344 3.453125 28.26367188 C3.31305614 30.84327338 3.16180414 33.42168625 3 36 C2.67 36 2.34 36 2 36 C1.97494385 35.2886792 1.9498877 34.5773584 1.92407227 33.84448242 C1.80811561 30.62530483 1.68538755 27.40642015 1.5625 24.1875 C1.52318359 23.06794922 1.48386719 21.94839844 1.44335938 20.79492188 C1.38051758 19.18520508 1.38051758 19.18520508 1.31640625 17.54296875 C1.27974854 16.55321045 1.24309082 15.56345215 1.20532227 14.54370117 C1.09209669 11.8781649 1.09209669 11.8781649 0 9 C-0.06740865 7.43881572 -0.08514456 5.8749748 -0.0625 4.3125 C-0.05347656 3.50425781 -0.04445312 2.69601563 -0.03515625 1.86328125 C-0.02355469 1.24839844 -0.01195312 0.63351563 0 0 Z " fill="#DC5D2B" transform="translate(189,59)"/>
<path d="M0 0 C-1.32 0.33 -2.64 0.66 -4 1 C-4 1.99 -4 2.98 -4 4 C-5.7015625 4.2165625 -5.7015625 4.2165625 -7.4375 4.4375 C-10.80777201 4.61171478 -10.80777201 4.61171478 -12 6 C-14.67058851 6.14115161 -17.32432238 6.04247107 -20 6 C-19 4 -19 4 -16.26953125 2.9296875 C-15.12871094 2.58164063 -13.98789063 2.23359375 -12.8125 1.875 C-11.68457031 1.52179687 -10.55664062 1.16859375 -9.39453125 0.8046875 C-6.11973638 0.028384 -3.3489037 -0.15245389 0 0 Z " fill="#C75F34" transform="translate(109,11)"/>
<path d="M0 0 C8.58 0.66 17.16 1.32 26 2 C26 2.33 26 2.66 26 3 C4.99082569 4.34862385 4.99082569 4.34862385 -4 3 C-2.68 2.67 -1.36 2.34 0 2 C0 1.34 0 0.68 0 0 Z " fill="#E45D24" transform="translate(109,10)"/>
<path d="M0 0 C-5.14285714 4.42857143 -5.14285714 4.42857143 -9 5 C-9 5.66 -9 6.32 -9 7 C-10.875 9.125 -10.875 9.125 -13 11 C-13.66 11 -14.32 11 -15 11 C-15.66 12.32 -16.32 13.64 -17 15 C-17.33 14.01 -17.66 13.02 -18 12 C-17.34 12 -16.68 12 -16 12 C-15.67 10.35 -15.34 8.7 -15 7 C-13.35 6.67 -11.7 6.34 -10 6 C-10 5.34 -10 4.68 -10 4 C-9.34 4 -8.68 4 -8 4 C-7.67 3.01 -7.34 2.02 -7 1 C-4.05697101 -0.96201933 -3.48011144 -1.16003715 0 0 Z " fill="#CE522E" transform="translate(97,36)"/>
<path d="M0 0 C8.65376409 2.28363219 14.92875447 6.42281734 21 13 C20.67 13.66 20.34 14.32 20 15 C15.3164557 11.32911392 15.3164557 11.32911392 13.4375 9.375 C11.77453673 7.78433948 10.08968466 6.93675519 8 6 C8 5.34 8 4.68 8 4 C7.236875 3.855625 6.47375 3.71125 5.6875 3.5625 C3 3 3 3 0 2 C0 1.34 0 0.68 0 0 Z " fill="#B5633E" transform="translate(134,102)"/>
<path d="M0 0 C2.35546875 0.5859375 2.35546875 0.5859375 5 2 C6.36328125 5.0390625 6.36328125 5.0390625 7.3125 8.625 C7.63863281 9.81351563 7.96476563 11.00203125 8.30078125 12.2265625 C8.53152344 13.14179687 8.76226562 14.05703125 9 15 C6.57421875 14.2734375 6.57421875 14.2734375 4 13 C3.14453125 10.9765625 3.14453125 10.9765625 2.8125 8.625 C2.31638666 5.36482663 1.60595121 2.89467749 0 0 Z " fill="#B55E39" transform="translate(131,71)"/>
<path d="M0 0 C4.34863652 0.56444825 7.17827655 2.15427964 10.8125 4.5625 C12.27623047 5.52349609 12.27623047 5.52349609 13.76953125 6.50390625 C14.50558594 6.99761719 15.24164063 7.49132812 16 8 C15.67 8.99 15.34 9.98 15 11 C12.49720508 9.35828571 9.99772323 7.71189741 7.5 6.0625 C6.78457031 5.59392578 6.06914062 5.12535156 5.33203125 4.64257812 C3.53711592 3.45451512 1.7663474 2.23013479 0 1 C0 0.67 0 0.34 0 0 Z " fill="#BC5E36" transform="translate(21,197)"/>
<path d="M0 0 C2.03833424 1.2739589 4.03852126 2.61061923 6 4 C6 4.66 6 5.32 6 6 C7.32 6 8.64 6 10 6 C10 6.99 10 7.98 10 9 C10.5775 9.12375 11.155 9.2475 11.75 9.375 C14.02335767 10.00648824 15.9253529 10.88858191 18 12 C17.01 12.495 17.01 12.495 16 13 C13.57336261 12.06919424 11.32452795 11.0787592 9 9.9375 C8.03707031 9.5053418 8.03707031 9.5053418 7.0546875 9.06445312 C3.57021592 7.36231063 2.15341627 6.34643729 0.5625 2.75390625 C0.376875 1.84511719 0.19125 0.93632812 0 0 Z " fill="#C06337" transform="translate(75,187)"/>
<path d="M0 0 C0.33 0 0.66 0 1 0 C1.797837 6.69613196 2.12910853 13.25766581 2 20 C1.34 20 0.68 20 0 20 C-1.13537936 13.32964627 -1.87457064 6.59075233 0 0 Z " fill="#C45F37" transform="translate(67,122)"/>
<path d="M0 0 C0.66 0 1.32 0 2 0 C1.53845962 2.02091952 1.03595743 3.91262158 0.24609375 5.83203125 C-2.71412898 13.08243184 -2.27371464 20.30557741 -2 28 C-5.50320152 22.74519771 -4.52694454 16.11500757 -4 10 C-3.00837907 6.45603301 -1.71429735 3.25257309 0 0 Z " fill="#AD5C3F" transform="translate(87,65)"/>
<path d="M0 0 C2.64 0 5.28 0 8 0 C6.17860018 3.64279963 1.69306005 4.68328929 -2 6 C-5.0625 6.25 -5.0625 6.25 -7 6 C-7 5.34 -7 4.68 -7 4 C-3.535 3.505 -3.535 3.505 0 3 C0 2.01 0 1.02 0 0 Z " fill="#CB6230" transform="translate(149,195)"/>
<path d="M0 0 C0.99 0.66 1.98 1.32 3 2 C2.4264514 5.32658187 1.64008597 6.88793122 -1 9 C-7.26909091 13 -7.26909091 13 -10 13 C-9.67 12.01 -9.34 11.02 -9 10 C-8.01 10 -7.02 10 -6 10 C-6 9.34 -6 8.68 -6 8 C-4.75 6.375 -4.75 6.375 -3 5 C-1.68 5 -0.36 5 1 5 C0.67 3.35 0.34 1.7 0 0 Z " fill="#B75D38" transform="translate(229,184)"/>
<path d="M0 0 C0.33 1.32 0.66 2.64 1 4 C0.41992188 4.24234375 -0.16015625 4.4846875 -0.7578125 4.734375 C-5.53486653 6.78393614 -9.77710389 8.96817715 -14 12 C-14.66 11.67 -15.32 11.34 -16 11 C-14.27278316 9.72651788 -12.54313762 8.45632943 -10.8125 7.1875 C-9.84957031 6.47980469 -8.88664063 5.77210938 -7.89453125 5.04296875 C-5.3220667 3.22731563 -2.72279516 1.57792699 0 0 Z " fill="#C0633D" transform="translate(220,160)"/>
<path d="M0 0 C0.66 0.33 1.32 0.66 2 1 C0.8774654 3.27208206 -0.24791521 5.54267645 -1.375 7.8125 C-1.69210938 8.45509766 -2.00921875 9.09769531 -2.3359375 9.75976562 C-3.76458611 12.63194461 -5.21785473 15.3267821 -7 18 C-6.85892253 16.54119891 -6.71197585 15.08296449 -6.5625 13.625 C-6.48128906 12.81289063 -6.40007812 12.00078125 -6.31640625 11.1640625 C-6 9 -6 9 -5 7 C-4.34 7 -3.68 7 -3 7 C-3.061875 6.21625 -3.12375 5.4325 -3.1875 4.625 C-3.125625 3.75875 -3.06375 2.8925 -3 2 C-2.01 1.34 -1.02 0.68 0 0 Z " fill="#BA5D3E" transform="translate(77,51)"/>
<path d="M0 0 C3.465 1.98 3.465 1.98 7 4 C7 4.99 7 5.98 7 7 C8.65 7.33 10.3 7.66 12 8 C10.6875 9.5 10.6875 9.5 9 11 C8.01 11 7.02 11 6 11 C5.7525 10.236875 5.505 9.47375 5.25 8.6875 C3.87213641 5.72509328 2.5717159 4.88592499 0 3 C0 2.01 0 1.02 0 0 Z " fill="#DA5C2B" transform="translate(88,173)"/>
<path d="M0 0 C3.67230705 3.07999946 4.56802365 5.2482602 5 10 C2.6875 10.6875 2.6875 10.6875 0 11 C-1.8125 9.5625 -1.8125 9.5625 -3 8 C-0.03 8.495 -0.03 8.495 3 9 C3 7.68 3 6.36 3 5 C2.01 4.67 1.02 4.34 0 4 C0 2.68 0 1.36 0 0 Z " fill="#BA653F" transform="translate(44,202)"/>
<path d="M0 0 C0.1875 3.125 0.1875 3.125 0 6 C-0.53625 5.175 -1.0725 4.35 -1.625 3.5 C-3.89002495 1.14198283 -5.11245497 0.98917478 -8.44921875 0.66796875 C-11.97750966 0.68580642 -15.47845592 0.78556227 -19 1 C-18.67 0.34 -18.34 -0.32 -18 -1 C-15.50682319 -1.36891876 -13.13229712 -1.60552749 -10.625 -1.75 C-9.93921875 -1.80542969 -9.2534375 -1.86085938 -8.546875 -1.91796875 C-4.73223879 -2.1628773 -3.27035537 -2.18023691 0 0 Z " fill="#D65A30" transform="translate(193,119)"/>
<path d="M0 0 C-0.33 1.98 -0.66 3.96 -1 6 C0.98 6.99 2.96 7.98 5 9 C2.39855749 9.96349722 1.05329335 10.0123938 -1.6875 9.375 C-4 8 -4 8 -5 5.5625 C-5 3 -5 3 -3.6875 1.1875 C-2 0 -2 0 0 0 Z " fill="#C95B31" transform="translate(224,174)"/>
<path d="M0 0 C0.66 0 1.32 0 2 0 C3.18359375 1.64453125 3.18359375 1.64453125 4.4375 3.8125 C5.74179301 6.05719236 6.76475535 7.79356081 8.72265625 9.51171875 C9.14417969 10.00285156 9.56570312 10.49398437 10 11 C9.6875 13.1875 9.6875 13.1875 9 15 C5.65830522 10.1334542 2.47696185 5.36675067 0 0 Z " fill="#BE623F" transform="translate(7,162)"/>
<path d="M0 0 C2.875 0.3125 2.875 0.3125 6 1 C6.66 1.99 7.32 2.98 8 4 C8.99 4.33 9.98 4.66 11 5 C11 5.99 11 6.98 11 8 C6.25 6.125 6.25 6.125 4 5 C4 4.34 4 3.68 4 3 C3.34 3 2.68 3 2 3 C2 2.34 2 1.68 2 1 C1.34 0.67 0.68 0.34 0 0 Z " fill="#BF6038" transform="translate(90,104)"/>
<path d="M0 0 C10.88028169 -0.57042254 10.88028169 -0.57042254 15 3 C15 3.66 15 4.32 15 5 C10.545 4.01 10.545 4.01 6 3 C6 2.34 6 1.68 6 1 C4.02 1 2.04 1 0 1 C0 0.67 0 0.34 0 0 Z " fill="#CF6236" transform="translate(115,65)"/>
<path d="M0 0 C0.66 0 1.32 0 2 0 C0.48446596 3.47775179 -1.5773456 5.9557984 -4.125 8.75 C-5.21167969 9.94882813 -5.21167969 9.94882813 -6.3203125 11.171875 C-6.87460938 11.77515625 -7.42890625 12.3784375 -8 13 C-8.66 12.67 -9.32 12.34 -10 12 C-9.67 11.34 -9.34 10.68 -9 10 C-8.34 10 -7.68 10 -7 10 C-7 9.34 -7 8.68 -7 8 C-6.34 8 -5.68 8 -5 8 C-4.731875 7.4225 -4.46375 6.845 -4.1875 6.25 C-2.97070811 3.94449957 -1.69666121 1.97943808 0 0 Z " fill="#BD6744" transform="translate(178,174)"/>
<path d="M0 0 C0.99 0.66 1.98 1.32 3 2 C2.42655063 4.86724686 2.1385485 5.8614515 0 8 C-3.125 8.125 -3.125 8.125 -6 8 C-5 6 -5 6 -2.4375 4.5625 C-1.633125 4.046875 -0.82875 3.53125 0 3 C0 2.01 0 1.02 0 0 Z " fill="#CA5B29" transform="translate(17,176)"/>
<path d="M0 0 C0.33 0.66 0.66 1.32 1 2 C0.319375 2.53625 -0.36125 3.0725 -1.0625 3.625 C-3.38259327 5.91162152 -3.38259327 5.91162152 -2.75 9.25 C-2.5025 10.1575 -2.255 11.065 -2 12 C-3.9375 11.3125 -3.9375 11.3125 -6 10 C-6.75 7.375 -6.75 7.375 -7 5 C-4.69 3.35 -2.38 1.7 0 0 Z " fill="#CE5C2A" transform="translate(202,172)"/>
<path d="M0 0 C0.24492187 0.61359375 0.48984375 1.2271875 0.7421875 1.859375 C2.25052285 4.42635567 3.44256788 5.03857904 6.125 6.25 C6.84945312 6.58515625 7.57390625 6.9203125 8.3203125 7.265625 C8.87460938 7.50796875 9.42890625 7.7503125 10 8 C9.01 9.485 9.01 9.485 8 11 C8 10.34 8 9.68 8 9 C7.071875 8.731875 6.14375 8.46375 5.1875 8.1875 C0.62711864 6.4885344 0.62711864 6.4885344 -1 4 C-0.6875 1.8125 -0.6875 1.8125 0 0 Z " fill="#BE613B" transform="translate(195,178)"/>
<path d="M0 0 C0 3 0 3 -1.625 5.625 C-4.43693229 8.43693229 -6.10240081 8.7342546 -10 9 C-6.83047153 5.73991357 -3.60062011 2.77762123 0 0 Z " fill="#B56136" transform="translate(156,169)"/>
<path d="M0 0 C-1.09918816 0.98475214 -2.2045602 1.96260473 -3.3125 2.9375 C-3.92738281 3.48277344 -4.54226562 4.02804688 -5.17578125 4.58984375 C-7 6 -7 6 -10 7 C-9.34 5.68 -8.68 4.36 -8 3 C-7.34 3 -6.68 3 -6 3 C-6 2.01 -6 1.02 -6 0 C-2.25 -1.125 -2.25 -1.125 0 0 Z " fill="#C76140" transform="translate(151,159)"/>
<path d="M0 0 C0.33 0 0.66 0 1 0 C1.20413361 5.73842251 1.27141454 10.60539047 -1 16 C-1.33 16 -1.66 16 -2 16 C-2.2396943 10.36718401 -1.38529821 5.45461169 0 0 Z " fill="#CF5830" transform="translate(190,142)"/>
<path d="M0 0 C0 0.99 0 1.98 0 3 C-1.6210103 3.69685498 -3.24696066 4.38222861 -4.875 5.0625 C-5.77992187 5.44535156 -6.68484375 5.82820313 -7.6171875 6.22265625 C-10 7 -10 7 -12 6 C-10.56839732 4.99157547 -9.12948547 3.99352109 -7.6875 3 C-6.88699219 2.443125 -6.08648437 1.88625 -5.26171875 1.3125 C-3 0 -3 0 0 0 Z " fill="#B35F3A" transform="translate(89,17)"/>
<path d="M0 0 C3 1.1875 3 1.1875 5 3.1875 C3.68 3.1875 2.36 3.1875 1 3.1875 C1 2.5275 1 1.8675 1 1.1875 C-0.65 1.5175 -2.3 1.8475 -4 2.1875 C-3.67 3.8375 -3.34 5.4875 -3 7.1875 C-4.5625 5.375 -4.5625 5.375 -6 3.1875 C-5.67 2.1975 -5.34 1.2075 -5 0.1875 C-3 -0.8125 -3 -0.8125 0 0 Z " fill="#A95833" transform="translate(10,154.8125)"/>
<path d="M0 0 C2 2 2 2 3.4375 5.375 C4.73106478 8.37607028 5.92306037 10.52745282 8 13 C5.6875 12.4375 5.6875 12.4375 3 11 C0.85884613 7.01302384 0 4.54765452 0 0 Z " fill="#BB6144" transform="translate(103,134)"/>
<path d="M0 0 C0 1.98 0 3.96 0 6 C-1.98 6 -3.96 6 -6 6 C-6 5.01 -6 4.02 -6 3 C-1.66666667 0 -1.66666667 0 0 0 Z " fill="#DB5529" transform="translate(227,156)"/>
<path d="M0 0 C-3.21552139 2.14368092 -6.4410057 3.51169329 -10 5 C-10.99 5.495 -10.99 5.495 -12 6 C-12 4.68 -12 3.36 -12 2 C-7.82262526 0.40861915 -4.46839215 -0.21278058 0 0 Z " fill="#C25832" transform="translate(121,66)"/>
<path d="M0 0 C4.75 0.875 4.75 0.875 7 2 C7.72159424 3.64363134 8.39351421 5.31050386 9 7 C5.56072421 5.7580393 2.74792181 4.44259716 0 2 C0 1.34 0 0.68 0 0 Z " fill="#DB5828" transform="translate(157,21)"/>
<path d="M0 0 C0.33 0.99 0.66 1.98 1 3 C0.34 3 -0.32 3 -1 3 C-1 4.65 -1 6.3 -1 8 C-1.33 7.34 -1.66 6.68 -2 6 C-2.66 6 -3.32 6 -4 6 C-4.33 4.35 -4.66 2.7 -5 1 C-3 0 -3 0 0 0 Z " fill="#E55B21" transform="translate(11,156)"/>
<path d="M0 0 C0.99 0 1.98 0 3 0 C3 1.32 3 2.64 3 4 C1.35 4.66 -0.3 5.32 -2 6 C-1.125 1.125 -1.125 1.125 0 0 Z " fill="#F6550E" transform="translate(196,204)"/>
<path d="M0 0 C6.75 1.625 6.75 1.625 9 5 C7.35 5 5.7 5 4 5 C4 4.34 4 3.68 4 3 C2.68 2.67 1.36 2.34 0 2 C0 1.34 0 0.68 0 0 Z " fill="#D25F35" transform="translate(29,169)"/>
<path d="M0 0 C1.46366342 0.39753821 2.9208935 0.81881384 4.375 1.25 C5.18710938 1.48203125 5.99921875 1.7140625 6.8359375 1.953125 C9.45785454 3.2214892 9.99382318 4.32423308 11 7 C10.01 6.67 9.02 6.34 8 6 C8 5.34 8 4.68 8 4 C7.236875 3.855625 6.47375 3.71125 5.6875 3.5625 C3 3 3 3 0 2 C0 1.34 0 0.68 0 0 Z " fill="#C5643A" transform="translate(134,102)"/>
<path d="M0 0 C2 1.375 2 1.375 4 3 C4 3.66 4 4.32 4 5 C5.32 5.66 6.64 6.32 8 7 C5.75 7.25 5.75 7.25 3 7 C0.6875 5 0.6875 5 -1 3 C-0.67 2.01 -0.34 1.02 0 0 Z " fill="#D85326" transform="translate(107,90)"/>
<path d="M0 0 C3.83345405 2.78796658 4.22497639 6.5612284 5 11 C4.34 11.66 3.68 12.32 3 13 C1.90154282 8.67940177 0.82187261 4.38332057 0 0 Z " fill="#AD5D37" transform="translate(152,65)"/>
<path d="M0 0 C0.33 1.32 0.66 2.64 1 4 C2.65 4 4.3 4 6 4 C5.67 4.66 5.34 5.32 5 6 C3.02 6 1.04 6 -1 6 C-1.042721 4.33388095 -1.04063832 2.66617115 -1 1 C-0.67 0.67 -0.34 0.34 0 0 Z " fill="#B66845" transform="translate(191,207)"/>
<path d="M0 0 C1.32 0.33 2.64 0.66 4 1 C2.71186658 1.83878455 1.41936744 2.67086783 0.125 3.5 C-0.59429687 3.9640625 -1.31359375 4.428125 -2.0546875 4.90625 C-4 6 -4 6 -6 6 C-5.67 5.01 -5.34 4.02 -5 3 C-3.67696283 2.6278958 -2.34262065 2.29369827 -1 2 C-0.67 1.34 -0.34 0.68 0 0 Z " fill="#A95738" transform="translate(215,197)"/>
<path d="M0 0 C0.33 0 0.66 0 1 0 C0.67 2.64 0.34 5.28 0 8 C-0.66 8 -1.32 8 -2 8 C-2 8.66 -2 9.32 -2 10 C-2.66 10 -3.32 10 -4 10 C-2.66666667 6.66666667 -1.33333333 3.33333333 0 0 Z " fill="#C15E35" transform="translate(168,151)"/>
<path d="M0 0 C1.9789756 3.63616656 2.5251065 6.88425629 3 11 C2.01 11.495 2.01 11.495 1 12 C0.03929566 9.11788698 -0.10581883 7.30149956 -0.0625 4.3125 C-0.05347656 3.50425781 -0.04445312 2.69601563 -0.03515625 1.86328125 C-0.02355469 1.24839844 -0.01195312 0.63351563 0 0 Z " fill="#BC673A" transform="translate(189,59)"/>
<path d="M0 0 C0.99 0 1.98 0 3 0 C3 0.66 3 1.32 3 2 C2.34 2 1.68 2 1 2 C1 2.99 1 3.98 1 5 C-0.98 5.99 -0.98 5.99 -3 7 C-2.67 5.35 -2.34 3.7 -2 2 C-1.34 2 -0.68 2 0 2 C0 1.34 0 0.68 0 0 Z " fill="#E95924" transform="translate(78,46)"/>
<path d="M0 0 C1.27875 0.103125 2.5575 0.20625 3.875 0.3125 C4.95394531 0.39951172 4.95394531 0.39951172 6.0546875 0.48828125 C8 1 8 1 10 4 C5.78087253 3.5205537 3.20336822 2.83374881 0 0 Z " fill="#C6663D" transform="translate(101,112)"/>
<path d="M0 0 C1.99097846 2.98646769 2.94124926 5.59687262 4 9 C1.525 8.01 1.525 8.01 -1 7 C-0.67 4.69 -0.34 2.38 0 0 Z " fill="#DA5B2E" transform="translate(136,77)"/>
<path d="M0 0 C0.66 0 1.32 0 2 0 C1.21681311 3.91593446 -0.39179858 7.36406635 -2 11 C-2.95465783 8.83032311 -3.14401212 7.43671207 -2.3984375 5.17578125 C-1.64129615 3.4315257 -0.82390802 1.71372869 0 0 Z " fill="#BE6946" transform="translate(87,65)"/>
<path d="M0 0 C0.33 0 0.66 0 1 0 C1.05399736 1.45792884 1.09279177 2.91642712 1.125 4.375 C1.14820313 5.18710938 1.17140625 5.99921875 1.1953125 6.8359375 C1 9 1 9 -1 11 C-1.99 10.67 -2.98 10.34 -4 10 C-3.34 10 -2.68 10 -2 10 C-1.34 6.7 -0.68 3.4 0 0 Z " fill="#C16C42" transform="translate(156,76)"/>
<path d="M0 0 C-1 2 -1 2 -2.84765625 2.6328125 C-3.57855469 2.79523437 -4.30945313 2.95765625 -5.0625 3.125 C-6.16271484 3.37636719 -6.16271484 3.37636719 -7.28515625 3.6328125 C-7.85105469 3.75398438 -8.41695313 3.87515625 -9 4 C-9.33 3.34 -9.66 2.68 -10 2 C-6.3558226 -0.4294516 -4.28758728 -0.16179575 0 0 Z " fill="#D85323" transform="translate(108,50)"/>
<path d="M0 0 C-4.95 1.485 -4.95 1.485 -10 3 C-9.67 2.01 -9.34 1.02 -9 0 C-3.375 -1.125 -3.375 -1.125 0 0 Z " fill="#C3663C" transform="translate(106,33)"/>
</svg>
